<svg width="923" height="725" viewBox="0 0 923 725" fill="none" xmlns="http://www.w3.org/2000/svg">
<path d="M8.49133 1.63408C4.51275 3.64461 2.59713 5.87056 0.828872 10.2506C-0.276291 13.2664 -0.276291 13.6255 0.828872 16.4259C1.56565 18.0774 2.74449 20.2315 3.48126 21.165C4.21804 22.0984 27.6475 40.7677 55.5713 62.5963L106.261 102.233L152.089 258.767C177.287 344.789 198.579 417.599 199.39 420.471L200.79 425.641L151.573 493.856C124.46 531.338 101.767 563.004 101.104 564.153C99.7041 566.881 99.7041 572.985 101.104 575.641C102.578 578.514 106.188 581.314 109.503 582.176C111.419 582.678 221.861 582.822 456.745 582.75L801.114 582.535L804.135 580.596C807.524 578.37 810.25 573.631 810.25 569.897C810.25 566.953 808.113 562.214 805.977 560.419C801.998 556.9 820.786 557.116 469.344 557.044C264.226 557.044 139.711 556.757 139.416 556.398C139.048 555.751 218.325 445.316 221.788 441.654L223.261 440.002H460.429C718.743 440.002 700.176 440.289 704.302 435.981C705.333 434.832 717.49 417.886 731.194 398.355C744.972 378.824 766.412 348.236 778.937 330.5C815.555 278.441 891.811 169.944 907.652 147.541C922.903 125.785 923.861 123.846 922.608 118.317C921.945 115.445 918.188 111.208 915.093 109.987C911.557 108.48 906.841 108.767 903.452 110.634C901.389 111.783 898.958 114.511 894.758 120.471C891.59 124.995 888.348 129.447 887.611 130.308L886.138 131.96H515.024C310.864 131.96 143.395 131.672 142.879 131.385C142.363 131.026 139.343 121.907 136.174 111.065C133.006 100.222 129.912 90.3848 129.249 89.1641C128.659 88.0152 126.817 85.9329 125.27 84.4968C118.934 78.6806 21.3112 2.92656 18.2168 1.49047C14.0171 -0.520067 12.7646 -0.520067 8.49133 1.63408ZM184.286 146.033C185.317 146.464 185.465 150.844 185.465 188.326C185.465 225.809 185.317 230.189 184.286 230.619C182.002 231.481 172.424 231.05 171.54 230.045C170.729 229.112 147.152 149.265 147.152 147.398C147.152 146.895 147.594 146.249 148.11 146.105C149.436 145.531 182.886 145.531 184.286 146.033ZM294.36 146.177C295.097 146.68 295.244 155.655 295.097 188.757L294.876 230.691L249.196 230.907C224.072 230.978 202.779 230.907 201.895 230.691L200.2 230.332V188.398C200.2 155.512 200.421 146.392 201.158 146.105C202.705 145.459 293.329 145.603 294.36 146.177ZM412.318 146.608C412.907 147.254 413.055 159.102 412.981 189.475L412.76 231.409L362.512 231.338C334.809 231.266 311.674 231.05 311.085 230.763C310.127 230.404 309.98 225.234 309.98 188.398C309.98 155.512 310.201 146.392 310.938 146.105C311.38 145.89 334.22 145.674 361.628 145.674C402.887 145.603 411.655 145.746 412.318 146.608ZM530.128 146.464C531.307 147.613 531.381 230.404 530.202 231.553C529.17 232.558 429.411 231.912 428.085 230.835C426.759 229.83 426.685 147.757 428.011 146.464C429.264 145.244 528.876 145.244 530.128 146.464ZM656.927 146.608C657.517 147.254 657.664 159.246 657.59 189.834L657.369 232.127H601.743H546.116L545.895 189.475C545.748 155.799 545.895 146.68 546.632 146.177C547.148 145.89 571.977 145.603 601.816 145.603C646.76 145.603 656.264 145.746 656.927 146.608ZM782.842 146.177C783.579 146.68 783.726 155.871 783.579 189.834L783.358 232.845L728.173 232.774C682.051 232.702 672.915 232.486 672.399 231.697C671.368 230.045 671.589 147.47 672.62 146.464C673.284 145.818 686.545 145.603 727.731 145.603C757.497 145.603 782.326 145.89 782.842 146.177ZM875.013 146.249C875.602 146.608 875.749 147.254 875.381 147.829C874.423 149.48 822.112 223.87 818.502 228.753L815.26 233.276L807.008 233.061L798.83 232.845L798.609 189.834C798.462 155.871 798.609 146.68 799.346 146.177C800.672 145.387 873.76 145.459 875.013 146.249ZM185.317 259.629C185.465 270.615 185.244 274.205 184.654 273.99C183.549 273.631 175.666 247.063 176.181 245.627C176.476 244.909 177.729 244.693 180.823 244.837L185.096 245.052L185.317 259.629ZM294.36 245.842C295.097 246.057 295.244 253.669 295.097 282.175L294.876 318.293H247.722H200.569L200.348 282.103C200.2 253.597 200.348 245.77 201.084 245.268C201.968 244.693 292.444 245.268 294.36 245.842ZM412.318 246.417C412.907 247.063 413.055 257.259 412.981 282.822L412.76 318.293H361.554H310.348L310.127 282.75C310.053 263.219 310.127 246.776 310.348 246.273C310.864 244.909 411.139 244.98 412.318 246.417ZM530.644 282.391V318.293L479.512 318.508C439.063 318.652 428.232 318.508 427.716 317.79C427.053 316.713 426.906 249.001 427.569 247.278C428.011 246.201 433.021 246.129 479.364 246.273L530.644 246.488V282.391ZM657.222 247.494C657.517 247.781 657.664 263.793 657.59 283.181L657.369 318.293L601.595 318.508L545.748 318.652V282.893C545.748 263.219 545.969 246.847 546.263 246.56C547 245.914 656.411 246.847 657.222 247.494ZM782.326 247.565C783.652 248.283 783.726 249.217 783.726 263.291V278.226L769.58 298.403L755.434 318.652H714.027C676.967 318.652 672.62 318.508 672.178 317.503C671.589 316.067 671.589 249.432 672.178 247.996C672.62 246.991 678.073 246.847 726.773 246.847C762.654 246.847 781.368 247.063 782.326 247.565ZM804.356 248.355C804.356 249.361 799.861 255.464 799.051 255.464C798.756 255.464 798.462 253.669 798.462 251.515V247.565H801.409C803.03 247.565 804.356 247.924 804.356 248.355ZM294.876 373.942V414.511L260.542 414.727C231.145 414.87 226.061 414.727 225.324 413.865C224.072 412.429 201.6 335.024 202.042 333.875C202.263 333.157 211.989 333.013 248.606 333.157L294.876 333.372V373.942ZM412.981 373.152C413.055 401.946 412.907 413.219 412.318 413.865C411.655 414.727 402.813 414.87 361.922 414.87C334.588 414.87 311.822 414.655 311.159 414.44C310.127 414.009 309.98 409.844 309.98 374.014C309.98 351.969 310.201 333.731 310.495 333.516C310.716 333.228 333.851 333.085 361.849 333.157L412.76 333.372L412.981 373.152ZM530.865 373.511C531.012 405.177 530.865 413.793 530.128 414.296C529.612 414.583 506.551 414.87 478.922 414.87C430 414.87 428.6 414.799 427.864 413.506C427.053 411.998 426.759 336.172 427.569 334.162C428.011 333.085 433.021 333.013 479.364 333.157L530.644 333.372L530.865 373.511ZM657.59 373.296C657.738 406.398 657.59 413.363 656.706 414.081C655.969 414.655 641.013 414.799 600.932 414.727L546.116 414.511L545.895 374.66C545.821 352.759 545.895 334.377 546.116 333.875C546.337 333.157 557.905 333.013 601.89 333.157L657.369 333.372L657.59 373.296ZM743.793 334.306C743.351 335.885 688.903 413.506 687.651 414.296C686.251 415.229 673.578 414.942 672.62 414.009C671.957 413.363 671.736 403.525 671.736 374.229C671.736 352.831 671.957 334.808 672.178 334.162C672.547 333.157 676.452 333.013 708.354 333.013C742.614 333.013 744.088 333.085 743.793 334.306Z" fill="#FF8126"/>
<path d="M200.716 609.461C177.065 613.339 158.793 629.28 152.162 651.611C150.763 656.206 150.468 659.007 150.468 666.905C150.468 678.466 151.941 684.354 157.246 694.478C160.046 699.792 162.035 702.305 167.782 707.834C173.455 713.435 176.034 715.374 181.412 718.03C197.032 725.857 213.094 727.078 229.082 721.764C244.186 716.81 255.679 706.685 262.826 692.396C267.394 683.205 268.941 676.671 268.868 666.546C268.794 642.779 254.28 621.884 231.734 613.052C222.009 609.318 210.147 607.954 200.716 609.461Z" fill="#FF8126"/>
<path d="M200.716 609.461C177.065 613.339 158.793 629.28 152.162 651.611C150.763 656.206 150.468 659.007 150.468 666.905C150.468 678.466 151.941 684.354 157.246 694.478C160.046 699.792 162.035 702.305 167.782 707.834C173.455 713.435 176.034 715.374 181.412 718.03C197.032 725.857 213.094 727.078 229.082 721.764C244.186 716.81 255.679 706.685 262.826 692.396C267.394 683.205 268.941 676.671 268.868 666.546C268.794 642.779 254.28 621.884 231.734 613.052C222.009 609.318 210.147 607.954 200.716 609.461Z" stroke="black"/>
<path d="M641.234 610.18C618.541 614.991 600.195 632.942 595.48 655.058C589.144 685.216 607.489 714.512 638.213 723.057C646.612 725.354 660.758 725.354 669.084 723.057C686.03 718.318 699.734 707.26 707.101 692.54C721.321 663.818 709.312 629.064 680.43 615.35C670.999 610.898 665.4 609.462 655.527 609.031C649.633 608.815 646.17 609.103 641.234 610.18Z" fill="#FF8126"/>
<path d="M641.234 610.18C618.541 614.991 600.195 632.942 595.48 655.058C589.144 685.216 607.489 714.512 638.213 723.057C646.612 725.354 660.758 725.354 669.084 723.057C686.03 718.318 699.734 707.26 707.101 692.54C721.321 663.818 709.312 629.064 680.43 615.35C670.999 610.898 665.4 609.462 655.527 609.031C649.633 608.815 646.17 609.103 641.234 610.18Z" stroke="black"/>
</svg>
